<svg width="26" height="24" viewBox="0 0 26 24" fill="none" xmlns="http://www.w3.org/2000/svg">
<rect width="26" height="24" rx="5" fill="white"/>
<path d="M18 21C16.6167 21 15.4375 20.5125 14.4625 19.5375C13.4875 18.5625 13 17.3833 13 16C13 14.6167 13.4875 13.4375 14.4625 12.4625C15.4375 11.4875 16.6167 11 18 11C19.3833 11 20.5625 11.4875 21.5375 12.4625C22.5125 13.4375 23 14.6167 23 16C23 17.3833 22.5125 18.5625 21.5375 19.5375C20.5625 20.5125 19.3833 21 18 21ZM18.2 16.5L20.475 14.225L19.775 13.525L17.5 15.8L18.2 16.5ZM3 10V5C3 4.45 3.19583 3.97917 3.5875 3.5875C3.97917 3.19583 4.45 3 5 3H21C21.55 3 22.0208 3.19583 22.4125 3.5875C22.8042 3.97917 23 4.45 23 5V11.1C22.3333 10.4167 21.5708 9.89583 20.7125 9.5375C19.8542 9.17917 18.95 9 18 9C17.3667 9 16.7625 9.07917 16.1875 9.2375C15.6125 9.39583 15.0667 9.61667 14.55 9.9L12.9 6.55C12.8167 6.38333 12.6917 6.25833 12.525 6.175C12.3583 6.09167 12.1833 6.05 12 6.05C11.8167 6.05 11.6417 6.09167 11.475 6.175C11.3083 6.25833 11.1833 6.38333 11.1 6.55L8 12.775L6.875 10.55C6.79167 10.3833 6.67083 10.25 6.5125 10.15C6.35417 10.05 6.18333 10 6 10H3ZM5 19C4.45 19 3.97917 18.8042 3.5875 18.4125C3.19583 18.0208 3 17.55 3 17V12H5.375L7.1 15.45C7.18333 15.6333 7.30417 15.7708 7.4625 15.8625C7.62083 15.9542 7.8 16 8 16C8.18333 16 8.35417 15.9542 8.5125 15.8625C8.67083 15.7708 8.79167 15.6333 8.875 15.45L12 9.25L12.95 11.15C12.35 11.7833 11.875 12.5125 11.525 13.3375C11.175 14.1625 11 15.05 11 16C11 16.5167 11.0542 17.0292 11.1625 17.5375C11.2708 18.0458 11.4417 18.5333 11.675 19H5Z" fill="#1277BD"/>
</svg>
