<svg width="30" height="30" viewBox="0 0 30 30" fill="none" xmlns="http://www.w3.org/2000/svg">
<rect width="30" height="30" rx="7" fill="white"/>
<path d="M15.4737 24V20.7441L20.7079 14.9206C20.85 14.7618 21.0079 14.6471 21.1816 14.5765C21.3553 14.5059 21.5289 14.4706 21.7026 14.4706C21.8921 14.4706 22.0737 14.5103 22.2474 14.5897C22.4211 14.6691 22.5789 14.7882 22.7211 14.9471L23.5974 15.9265C23.7237 16.0853 23.8224 16.2618 23.8934 16.4559C23.9645 16.65 24 16.8441 24 17.0382C24 17.2324 23.9684 17.4309 23.9053 17.6338C23.8421 17.8368 23.7395 18.0176 23.5974 18.1765L18.3868 24H15.4737ZM6 22.9412V19.9765C6 19.3765 6.13816 18.825 6.41447 18.3221C6.69079 17.8191 7.05789 17.4353 7.51579 17.1706C8.49474 16.6235 9.48947 16.2132 10.5 15.9397C11.5105 15.6662 12.5368 15.5294 13.5789 15.5294C14.1632 15.5294 14.7395 15.5691 15.3079 15.6485C15.8763 15.7279 16.4447 15.8559 17.0132 16.0324L13.5789 19.8706V22.9412H6ZM21.7026 18.0706L22.5789 17.0382L21.7026 16.0588L20.8026 17.0647L21.7026 18.0706ZM13.5789 14.4706C12.5368 14.4706 11.6447 14.0559 10.9026 13.2265C10.1605 12.3971 9.78947 11.4 9.78947 10.2353C9.78947 9.07059 10.1605 8.07353 10.9026 7.24412C11.6447 6.41471 12.5368 6 13.5789 6C14.6211 6 15.5132 6.41471 16.2553 7.24412C16.9974 8.07353 17.3684 9.07059 17.3684 10.2353C17.3684 11.4 16.9974 12.3971 16.2553 13.2265C15.5132 14.0559 14.6211 14.4706 13.5789 14.4706Z" fill="#1277BD"/>
</svg>
