<svg width="40" height="33" viewBox="0 0 40 33" fill="none" xmlns="http://www.w3.org/2000/svg">
<rect width="40" height="33" rx="7" fill="white"/>
<path d="M27.218 16.8573C26.756 17.3159 26.0098 17.3137 25.5506 16.8523C25.0944 16.3939 25.0922 15.6539 25.5456 15.1928L25.9591 14.7724C26.6352 14.0848 26.6319 12.981 25.9517 12.2975L25.5506 11.8945C25.0941 11.4358 25.0908 10.6954 25.5433 10.2326C26.0045 9.76088 26.7625 9.75753 27.2279 10.2252L27.6301 10.6292C28.3092 11.3116 29.4147 11.3083 30.0898 10.6219L30.4749 10.2302C30.9379 9.75939 31.6962 9.75712 32.162 10.2252C32.6246 10.69 32.6224 11.4421 32.157 11.9042L31.7591 12.2992C31.074 12.9794 31.0707 14.0864 31.7517 14.7707L32.162 15.1829C32.6242 15.6474 32.6209 16.3992 32.1545 16.8596C31.6908 17.3174 30.9443 17.3141 30.4846 16.8522L30.0915 16.4572C29.4131 15.7756 28.3108 15.7723 27.6284 16.4499L27.218 16.8573ZM16.4545 16.5C15.1545 16.5 14.0417 16.0349 13.1159 15.1047C12.1902 14.1745 11.7273 13.0563 11.7273 11.75C11.7273 10.4437 12.1902 9.32552 13.1159 8.39531C14.0417 7.4651 15.1545 7 16.4545 7C17.7545 7 18.8674 7.4651 19.7932 8.39531C20.7189 9.32552 21.1818 10.4437 21.1818 11.75C21.1818 13.0563 20.7189 14.1745 19.7932 15.1047C18.8674 16.0349 17.7545 16.5 16.4545 16.5ZM10.325 26C8.48865 26 7 24.5113 7 22.675C7 22.0021 7.17235 21.3836 7.51705 20.8195C7.86174 20.2555 8.3197 19.825 8.89091 19.5281C10.1121 18.9146 11.353 18.4544 12.6136 18.1477C13.8742 17.8409 15.1545 17.6875 16.4545 17.6875C17.7545 17.6875 19.0348 17.8409 20.2955 18.1477C21.5561 18.4544 22.797 18.9146 24.0182 19.5281C24.5894 19.825 25.0473 20.2555 25.392 20.8195C25.7367 21.3836 25.9091 22.0021 25.9091 22.675C25.9091 24.5113 24.4204 26 22.5841 26H10.325Z" fill="#1277BD"/>
</svg>
