<svg width="44" height="45" viewBox="0 0 44 45" fill="none" xmlns="http://www.w3.org/2000/svg">
<path d="M44 22.136C44 9.98442 34.1516 0.135986 22 0.135986C9.84844 0.135986 0 9.98442 0 22.136C0 33.1179 8.04031 42.2196 18.5642 43.8704V28.5005H12.9826V22.136H18.5642V17.29C18.5642 11.7805 21.8427 8.73145 26.8701 8.73145C29.2806 8.73145 31.8003 9.16544 31.8003 9.16544V14.5778H29.028C26.2917 14.5778 25.4478 16.2776 25.4478 18.0136V22.136H31.5477L30.5714 28.5005H25.4478V43.8704C35.9597 42.2196 44 33.1179 44 22.136Z" fill="#1277BD"/>
<path d="M30.5585 28.5005L31.5356 22.136H25.4358V18.0136C25.4358 16.2776 26.2917 14.5778 29.0159 14.5778H31.7883V9.16543C31.7883 9.16543 29.2686 8.73145 26.858 8.73145C21.8315 8.73145 18.5522 11.7814 18.5522 17.29V22.136H12.9705V28.5005H18.5522V43.8704C19.6736 44.0509 20.8183 44.136 21.9879 44.136C23.1576 44.136 24.3022 44.0397 25.4237 43.8704V28.5005H30.5585Z" fill="white"/>
</svg>
