<svg width="22" height="26" viewBox="0 0 22 26" fill="none" xmlns="http://www.w3.org/2000/svg">
<rect x="0.5" width="21" height="26" rx="5" fill="white"/>
<path d="M10.0034 14.4347V14.3239C10.0062 13.8097 10.0545 13.4006 10.1483 13.0966C10.2449 12.7926 10.3812 12.5483 10.5574 12.3636C10.7335 12.1761 10.948 12.0043 11.2008 11.848C11.3741 11.7401 11.5289 11.6222 11.6653 11.4943C11.8045 11.3636 11.9139 11.2187 11.9934 11.0597C12.073 10.8977 12.1127 10.7173 12.1127 10.5185C12.1127 10.294 12.0602 10.0994 11.9551 9.93466C11.85 9.76989 11.7079 9.64205 11.5289 9.55114C11.3528 9.46023 11.1554 9.41477 10.9366 9.41477C10.7349 9.41477 10.5431 9.45881 10.3613 9.54688C10.1824 9.6321 10.0332 9.76278 9.91389 9.93892C9.79741 10.1122 9.73207 10.3324 9.71786 10.5994H8.20082C8.21502 10.0597 8.3457 9.60795 8.59286 9.24432C8.84286 8.88068 9.17241 8.60795 9.5815 8.42614C9.99343 8.24432 10.448 8.15341 10.9451 8.15341C11.4877 8.15341 11.965 8.24858 12.377 8.43892C12.7917 8.62926 13.1142 8.90057 13.3443 9.25284C13.5772 9.60227 13.6937 10.017 13.6937 10.4972C13.6937 10.821 13.6412 11.1108 13.536 11.3665C13.4338 11.6222 13.2875 11.8494 13.0971 12.0483C12.9068 12.2472 12.6809 12.4247 12.4196 12.581C12.1895 12.723 12.0005 12.8707 11.8528 13.0241C11.7079 13.1776 11.6 13.358 11.5289 13.5653C11.4608 13.7699 11.4252 14.0227 11.4224 14.3239V14.4347H10.0034ZM10.7449 17.0938C10.4892 17.0938 10.269 17.0028 10.0843 16.821C9.89968 16.6392 9.80735 16.4176 9.80735 16.1562C9.80735 15.9006 9.89968 15.6818 10.0843 15.5C10.269 15.3182 10.4892 15.2273 10.7449 15.2273C10.9977 15.2273 11.2164 15.3182 11.4011 15.5C11.5886 15.6818 11.6824 15.9006 11.6824 16.1562C11.6824 16.3295 11.6383 16.4872 11.5502 16.6293C11.465 16.7713 11.3514 16.8849 11.2093 16.9702C11.0701 17.0526 10.9153 17.0938 10.7449 17.0938Z" fill="#1277BD"/>
</svg>
