<svg width="45" height="45" viewBox="0 0 45 45" fill="none" xmlns="http://www.w3.org/2000/svg">
<path d="M22.3695 4.10003C28.2438 4.10003 28.9396 4.12239 31.2594 4.22823C33.4043 4.32613 34.5692 4.68452 35.3445 4.98572C36.3714 5.38482 37.1043 5.86163 37.8741 6.63144C38.6439 7.40125 39.1207 8.1342 39.5197 9.16102C39.821 9.93632 40.1794 11.1012 40.2773 13.2461C40.3832 15.566 40.4055 16.2617 40.4055 22.136C40.4055 28.0103 40.3832 28.7061 40.2773 31.0259C40.1794 33.1709 39.821 34.3357 39.5197 35.111C39.1207 36.1379 38.6439 36.8708 37.8741 37.6406C37.1043 38.4104 36.3714 38.8872 35.3445 39.2863C34.5692 39.5875 33.4043 39.9459 31.2594 40.0438C28.9399 40.1497 28.2442 40.172 22.3695 40.172C16.4949 40.172 15.7991 40.1497 13.4797 40.0438C11.3347 39.9459 10.1698 39.5875 9.3946 39.2863C8.36769 38.8872 7.63474 38.4104 6.86493 37.6406C6.09513 36.8708 5.61831 36.1379 5.2193 35.111C4.91802 34.3357 4.55962 33.1709 4.46172 31.026C4.35588 28.7061 4.33352 28.0103 4.33352 22.136C4.33352 16.2617 4.35588 15.566 4.46172 13.2462C4.55962 11.1012 4.91802 9.93632 5.2193 9.16102C5.61831 8.1342 6.09513 7.40125 6.86493 6.63144C7.63474 5.86163 8.36769 5.38482 9.3946 4.98572C10.1698 4.68452 11.3347 4.32613 13.4796 4.22823C15.7995 4.12239 16.4952 4.10003 22.3695 4.10003ZM22.3695 0.135986C16.3946 0.135986 15.6455 0.161312 13.299 0.268377C10.9573 0.375268 9.35809 0.747116 7.95864 1.291C6.51195 1.85323 5.28506 2.60548 4.06202 3.82852C2.83897 5.05157 2.08672 6.27846 1.5245 7.72515C0.98061 9.1246 0.608762 10.7238 0.501872 13.0655C0.394806 15.4119 0.369568 16.1611 0.369568 22.136C0.369568 28.1109 0.394806 28.8601 0.501872 31.2066C0.608762 33.5483 0.98061 35.1475 1.5245 36.5469C2.08672 37.9935 2.83897 39.2205 4.06202 40.4435C5.28506 41.6666 6.51195 42.4188 7.95864 42.9811C9.35809 43.5249 10.9573 43.8968 13.299 44.0037C15.6455 44.1107 16.3946 44.136 22.3695 44.136C28.3444 44.136 29.0936 44.1107 31.4401 44.0037C33.7818 43.8968 35.381 43.5249 36.7804 42.9811C38.2271 42.4188 39.454 41.6666 40.677 40.4435C41.9001 39.2205 42.6523 37.9936 43.2146 36.5469C43.7584 35.1475 44.1303 33.5483 44.2372 31.2066C44.3442 28.8601 44.3696 28.1109 44.3696 22.136C44.3696 16.1611 44.3442 15.4119 44.2372 13.0655C44.1303 10.7238 43.7584 9.1246 43.2146 7.72515C42.6523 6.27846 41.9001 5.05157 40.677 3.82852C39.454 2.60548 38.2271 1.85323 36.7804 1.291C35.381 0.747116 33.7818 0.375268 31.4401 0.268377C29.0936 0.161312 28.3444 0.135986 22.3695 0.135986ZM22.3695 10.8387C16.1302 10.8387 11.0722 15.8967 11.0722 22.136C11.0722 28.3753 16.1302 33.4334 22.3695 33.4334C28.6088 33.4334 33.6669 28.3753 33.6669 22.136C33.6669 15.8967 28.6088 10.8387 22.3695 10.8387ZM22.3695 29.4694C18.3195 29.4694 15.0361 26.1861 15.0361 22.136C15.0361 18.086 18.3195 14.8027 22.3695 14.8027C26.4196 14.8027 29.7029 18.086 29.7029 22.136C29.7029 26.1861 26.4196 29.4694 22.3695 29.4694ZM36.7532 10.3924C36.7532 11.8504 35.5712 13.0324 34.1132 13.0324C32.6552 13.0324 31.4732 11.8504 31.4732 10.3924C31.4732 8.93431 32.6552 7.7524 34.1132 7.7524C35.5712 7.7524 36.7532 8.93431 36.7532 10.3924Z" fill="#1277BD"/>
</svg>
