<svg width="25" height="26" viewBox="0 0 25 26" fill="none" xmlns="http://www.w3.org/2000/svg">
<path d="M2.77778 25.138C2.01389 25.138 1.35995 24.866 0.815972 24.3221C0.271991 23.7781 0 23.1241 0 22.3603V2.91581C0 2.15192 0.271991 1.49798 0.815972 0.954003C1.35995 0.410022 2.01389 0.138031 2.77778 0.138031H12.5V2.91581H2.77778V22.3603H22.2222V12.638H25V22.3603C25 23.1241 24.728 23.7781 24.184 24.3221C23.64 24.866 22.9861 25.138 22.2222 25.138H2.77778ZM9.30556 17.7769L7.36111 15.8325L20.2778 2.91581H15.2778V0.138031H25V9.86025H22.2222V4.86025L9.30556 17.7769Z" fill="#0000FF"/>
</svg>

