<svg width="45" height="45" viewBox="0 0 45 45" fill="none" xmlns="http://www.w3.org/2000/svg">
<g clip-path="url(#clip0_101_250)">
<path d="M34.4266 0.135986H11.0516C5.3562 0.135986 0.739136 4.75305 0.739136 10.4485V33.8235C0.739136 39.5189 5.3562 44.136 11.0516 44.136H34.4266C40.1221 44.136 44.7391 39.5189 44.7391 33.8235V10.4485C44.7391 4.75305 40.1221 0.135986 34.4266 0.135986Z" fill="white"/>
<path d="M34.4266 0.135986H11.0516C5.3562 0.135986 0.739136 4.75305 0.739136 10.4485V33.8235C0.739136 39.5189 5.3562 44.136 11.0516 44.136H34.4266C40.1221 44.136 44.7391 39.5189 44.7391 33.8235V10.4485C44.7391 4.75305 40.1221 0.135986 34.4266 0.135986Z" fill="#1277BD"/>
<path d="M32.4871 37.5506H37.5178C37.8975 37.5506 38.2053 37.2429 38.2053 36.8633L38.2079 26.2342C38.2079 20.6786 37.0108 16.4083 30.5186 16.4083C28.0506 16.3167 25.7233 17.5888 24.4674 19.7132C24.4574 19.7301 24.4395 19.7404 24.4199 19.7404C24.3897 19.7404 24.3651 19.7158 24.3651 19.6856V17.6088C24.3651 17.2291 24.0575 16.9213 23.6776 16.9213H18.9034C18.5238 16.9213 18.2159 17.2291 18.2159 17.6088V36.8622C18.2159 37.2421 18.5238 37.5497 18.9034 37.5497H23.9339C24.3136 37.5497 24.6214 37.2421 24.6214 36.8622V27.345C24.6214 24.6539 25.1318 22.0478 28.4681 22.0478C31.7569 22.0478 31.7996 25.1271 31.7996 27.5193V36.8631C31.7996 37.2428 32.1074 37.5506 32.4871 37.5506Z" fill="white"/>
<path d="M7.27039 10.3845C7.27039 12.4237 8.94917 14.1015 10.9884 14.1015C13.0272 14.1013 14.7049 12.4225 14.7049 10.3837C14.7045 8.34486 13.0267 6.66724 10.9876 6.66724C8.9484 6.66724 7.27039 8.34525 7.27039 10.3845Z" fill="white"/>
<path d="M8.46643 37.5506H13.5036C13.8833 37.5506 14.1911 37.2428 14.1911 36.8631V17.6088C14.1911 17.2291 13.8833 16.9213 13.5036 16.9213H8.46643C8.08674 16.9213 7.77893 17.2291 7.77893 17.6088V36.8631C7.77893 37.2428 8.08674 37.5506 8.46643 37.5506Z" fill="white"/>
</g>
<defs>
<clipPath id="clip0_101_250">
<rect width="44" height="44" fill="white" transform="translate(0.739136 0.135986)"/>
</clipPath>
</defs>
</svg>
