<svg width="25" height="26" viewBox="0 0 25 26" fill="none" xmlns="http://www.w3.org/2000/svg">
<path d="M2.77778 25.5C2.01389 25.5 1.35995 25.228 0.815972 24.684C0.271991 24.14 0 23.4861 0 22.7222V3.27778C0 2.51389 0.271991 1.85995 0.815972 1.31597C1.35995 0.771991 2.01389 0.5 2.77778 0.5H12.5V3.27778H2.77778V22.7222H22.2222V13H25V22.7222C25 23.4861 24.728 24.14 24.184 24.684C23.64 25.228 22.9861 25.5 22.2222 25.5H2.77778ZM9.30556 18.1389L7.36111 16.1944L20.2778 3.27778H15.2778V0.5H25V10.2222H22.2222V5.22222L9.30556 18.1389Z" fill="white"/>
</svg>
