<svg width="26" height="26" viewBox="0 0 26 26" fill="none" xmlns="http://www.w3.org/2000/svg">
<rect width="26" height="26" rx="5" fill="white"/>
<path d="M13 3C14.3261 3 15.5975 3.50608 16.5352 4.40625C17.4728 5.30638 17.9999 6.52684 18 7.7998V10.126C19.7252 10.57 21 12.1362 21 14V19C21 21.2091 19.2091 23 17 23H9C6.79086 23 5 21.2091 5 19V14C5 12.1362 6.27477 10.57 8 10.126V7.7998C8.00005 6.52684 8.52721 5.30638 9.46484 4.40625C10.4025 3.50608 11.6739 3 13 3ZM13 13C11.8954 13 11 13.8954 11 15C11 15.606 11.2706 16.1479 11.6963 16.5146L11 20H15L14.3027 16.5146C14.7288 16.1479 15 15.6063 15 15C15 13.8954 14.1046 13 13 13ZM13 4.60352C12.117 4.60352 11.27 4.93972 10.6455 5.53906C10.021 6.13855 9.66998 6.95201 9.66992 7.7998H9.66699V10H16.333V7.7998H16.3301C16.33 6.95201 15.979 6.13855 15.3545 5.53906C14.73 4.93972 13.883 4.60352 13 4.60352Z" fill="#1277BD"/>
</svg>
