<svg width="110" height="88" viewBox="0 0 110 88" fill="none" xmlns="http://www.w3.org/2000/svg">
<path d="M23.5714 13.6818C23.5714 6.4017 29.4344 0.5 36.6667 0.5H44.5238V58.5C44.5238 67.2361 37.4883 74.3182 28.8095 74.3182H23.5714V13.6818Z" fill="white"/>
<path d="M0 26.8636H83.8095V47.9545H65.4762H62.8844H0V26.8636Z" fill="white"/>
<path d="M65.4762 0.5H83.8095V17.1158V26.8636V47.9545H65.4762V0.5Z" fill="white"/>
<path d="M76.2814 22.242C78.7569 20.1773 81.1913 18.4825 83.8095 17.1158V26.8636V47.9545H65.4762H62.8844C63.2836 38.2946 68.0592 29.0997 76.2814 22.242Z" fill="white"/>
<path d="M83.8095 47.9545V26.8636V17.1158C90.2823 13.7371 97.8791 12.3636 110 12.3636V21.5909V24.2273L108.69 26.8636L107.381 28.1818L106.071 29.5C104.832 30.748 102.462 31.2249 99.8728 31.7462C96.9921 32.326 94.2857 33.4545 91.6667 34.7727C85.119 38.7273 83.8095 44.4067 83.8095 49.2727C83.8095 54.1388 86.4286 59.8182 89.0476 62.4545C93.173 65.8954 95.5952 69.0455 110 69.0455V87.5C97.8442 87.5 87.1668 86.7599 78.5714 79.5909C69.976 72.4219 62.8571 59.4112 62.8571 49.2727C62.8571 48.8325 62.8662 48.393 62.8844 47.9545H65.4762H83.8095Z" fill="white"/>
</svg>
