<svg width="40" height="42" viewBox="0 0 40 42" fill="none" xmlns="http://www.w3.org/2000/svg">
<rect width="40" height="42" rx="7" fill="white"/>
<path d="M10.775 29.16C12.05 28.12 13.475 27.3 15.05 26.7C16.625 26.1 18.275 25.8 20 25.8C21.725 25.8 23.375 26.1 24.95 26.7C26.525 27.3 27.95 28.12 29.225 29.16C30.1 28.0667 30.7813 26.8267 31.2688 25.44C31.7563 24.0533 32 22.5733 32 21C32 17.4533 30.8313 14.4333 28.4938 11.94C26.1562 9.44667 23.325 8.2 20 8.2C16.675 8.2 13.8438 9.44667 11.5063 11.94C9.16875 14.4333 8 17.4533 8 21C8 22.5733 8.24375 24.0533 8.73125 25.44C9.21875 26.8267 9.9 28.0667 10.775 29.16ZM20 22.6C18.525 22.6 17.2812 22.06 16.2688 20.98C15.2563 19.9 14.75 18.5733 14.75 17C14.75 15.4267 15.2563 14.1 16.2688 13.02C17.2812 11.94 18.525 11.4 20 11.4C21.475 11.4 22.7188 11.94 23.7313 13.02C24.7437 14.1 25.25 15.4267 25.25 17C25.25 18.5733 24.7437 19.9 23.7313 20.98C22.7188 22.06 21.475 22.6 20 22.6ZM20 37C17.925 37 15.975 36.58 14.15 35.74C12.325 34.9 10.7375 33.76 9.3875 32.32C8.0375 30.88 6.96875 29.1867 6.18125 27.24C5.39375 25.2933 5 23.2133 5 21C5 18.7867 5.39375 16.7067 6.18125 14.76C6.96875 12.8133 8.0375 11.12 9.3875 9.68C10.7375 8.24 12.325 7.1 14.15 6.26C15.975 5.42 17.925 5 20 5C22.075 5 24.025 5.42 25.85 6.26C27.675 7.1 29.2625 8.24 30.6125 9.68C31.9625 11.12 33.0312 12.8133 33.8187 14.76C34.6062 16.7067 35 18.7867 35 21C35 23.2133 34.6062 25.2933 33.8187 27.24C33.0312 29.1867 31.9625 30.88 30.6125 32.32C29.2625 33.76 27.675 34.9 25.85 35.74C24.025 36.58 22.075 37 20 37Z" fill="#1277BD"/>
</svg>
