<svg width="41" height="41" viewBox="0 0 41 41" fill="none" xmlns="http://www.w3.org/2000/svg">
<rect width="41" height="41" rx="7" fill="white"/>
<path d="M20.5 36C18.6808 36 16.9767 35.6253 15.3879 34.876C13.7991 34.1266 12.4165 33.1143 11.24 31.8391C10.0636 30.5638 9.12969 29.0651 8.43838 27.3429C7.74707 25.6207 7.40141 23.7735 7.40141 21.8015C7.40141 19.8295 7.74707 17.9824 8.43838 16.2602C9.12969 14.538 10.0636 13.0392 11.24 11.764C12.4165 10.4888 13.7991 9.47646 15.3879 8.7271C16.9767 7.97774 18.6808 7.60305 20.5 7.60305C22.3192 7.60305 24.0233 7.97774 25.6121 8.7271C27.2009 9.47646 28.5835 10.4888 29.76 11.764C30.9364 13.0392 31.8703 14.538 32.5616 16.2602C33.2529 17.9824 33.5986 19.8295 33.5986 21.8015C33.5986 23.7735 33.2529 25.6207 32.5616 27.3429C31.8703 29.0651 30.9364 30.5638 29.76 31.8391C28.5835 33.1143 27.2009 34.1266 25.6121 34.876C24.0233 35.6253 22.3192 36 20.5 36ZM24.5751 28.4275L26.6127 26.2188L21.9554 21.1705V13.9135H19.0446V22.4326L24.5751 28.4275ZM11.1854 5L13.223 7.20865L7.03756 13.9135L5 11.7048L11.1854 5ZM29.8146 5L36 11.7048L33.9624 13.9135L27.777 7.20865L29.8146 5ZM20.5 32.8448C23.338 32.8448 25.7455 31.7733 27.7224 29.6304C29.6993 27.4875 30.6878 24.8779 30.6878 21.8015C30.6878 18.7252 29.6993 16.1156 27.7224 13.9726C25.7455 11.8297 23.338 10.7583 20.5 10.7583C17.662 10.7583 15.2545 11.8297 13.2776 13.9726C11.3007 16.1156 10.3122 18.7252 10.3122 21.8015C10.3122 24.8779 11.3007 27.4875 13.2776 29.6304C15.2545 31.7733 17.662 32.8448 20.5 32.8448Z" fill="#1277BD"/>
</svg>
