<svg width="56" height="26" viewBox="0 0 56 26" fill="none" xmlns="http://www.w3.org/2000/svg">
<rect x="0.5" width="55" height="26" rx="5" fill="white"/>
<path d="M11.8253 8.27273V17H10.2443V9.81108H10.1932L8.15199 11.1151V9.66619L10.321 8.27273H11.8253ZM14.0412 17V15.858L17.071 12.8878C17.3608 12.5952 17.6023 12.3352 17.7955 12.108C17.9886 11.8807 18.1335 11.6605 18.2301 11.4474C18.3267 11.2344 18.375 11.0071 18.375 10.7656C18.375 10.4901 18.3125 10.2543 18.1875 10.0582C18.0625 9.85938 17.8906 9.70597 17.6719 9.59801C17.4531 9.49006 17.2045 9.43608 16.9261 9.43608C16.6392 9.43608 16.3878 9.49574 16.1719 9.61506C15.956 9.73153 15.7884 9.89773 15.669 10.1136C15.5526 10.3295 15.4943 10.5866 15.4943 10.8849H13.9901C13.9901 10.331 14.1165 9.84943 14.3693 9.44034C14.6222 9.03125 14.9702 8.71449 15.4134 8.49006C15.8594 8.26562 16.3707 8.15341 16.9474 8.15341C17.5327 8.15341 18.0469 8.26278 18.4901 8.48153C18.9332 8.70028 19.277 9 19.5213 9.38068C19.7685 9.76136 19.892 10.196 19.892 10.6847C19.892 11.0114 19.8295 11.3324 19.7045 11.6477C19.5795 11.9631 19.3594 12.3125 19.044 12.696C18.7315 13.0795 18.2926 13.544 17.7273 14.0895L16.223 15.6193V15.679H20.0241V17H14.0412ZM24.6264 17.1193C24.0128 17.1193 23.4673 17.0142 22.9901 16.804C22.5156 16.5937 22.1406 16.3011 21.8651 15.9261C21.5895 15.5511 21.4432 15.1179 21.4261 14.6264H23.0284C23.0426 14.8622 23.1207 15.0682 23.2628 15.2443C23.4048 15.4176 23.5938 15.5526 23.8295 15.6491C24.0653 15.7457 24.3295 15.794 24.6222 15.794C24.9347 15.794 25.2116 15.7401 25.4531 15.6321C25.6946 15.5213 25.8835 15.3679 26.0199 15.1719C26.1563 14.9759 26.223 14.75 26.2202 14.4943C26.223 14.2301 26.1548 13.9972 26.0156 13.7955C25.8764 13.5937 25.6747 13.4361 25.4105 13.3224C25.1491 13.2088 24.8338 13.152 24.4645 13.152H23.6932V11.9332H24.4645C24.7685 11.9332 25.0341 11.8807 25.2614 11.7756C25.4915 11.6705 25.6719 11.5227 25.8026 11.3324C25.9332 11.1392 25.9972 10.9162 25.9943 10.6634C25.9972 10.4162 25.9418 10.2017 25.8281 10.0199C25.7173 9.83523 25.5597 9.69176 25.3551 9.58949C25.1534 9.48722 24.9162 9.43608 24.6435 9.43608C24.3764 9.43608 24.1293 9.48437 23.902 9.58097C23.6747 9.67756 23.4915 9.81534 23.3523 9.99432C23.2131 10.1705 23.1392 10.3807 23.1307 10.625H21.6094C21.6207 10.1364 21.7614 9.70739 22.0312 9.33807C22.304 8.96591 22.6676 8.67614 23.1222 8.46875C23.5767 8.25852 24.0866 8.15341 24.652 8.15341C25.2344 8.15341 25.7401 8.26278 26.169 8.48153C26.6009 8.69744 26.9347 8.98864 27.1705 9.35511C27.4063 9.72159 27.5241 10.1264 27.5241 10.5696C27.527 11.0611 27.3821 11.473 27.0895 11.8054C26.7997 12.1378 26.419 12.3551 25.9474 12.4574V12.5256C26.5611 12.6108 27.0313 12.8381 27.358 13.2074C27.6875 13.5739 27.8509 14.0298 27.848 14.5753C27.848 15.0639 27.7088 15.5014 27.4304 15.8878C27.1548 16.2713 26.7741 16.5724 26.2884 16.7912C25.8054 17.0099 25.2514 17.1193 24.6264 17.1193ZM31.2752 13.1818L31.3732 11.456L29.9244 12.4062L29.4045 11.5028L30.9513 10.7273L29.4045 9.9517L29.9244 9.0483L31.3732 9.99858L31.2752 8.27273H32.3107L32.217 9.99858L33.6658 9.0483L34.1857 9.9517L32.6346 10.7273L34.1857 11.5028L33.6658 12.4062L32.217 11.456L32.3107 13.1818H31.2752ZM37.7908 13.1818L37.8888 11.456L36.44 12.4062L35.9201 11.5028L37.467 10.7273L35.9201 9.9517L36.44 9.0483L37.8888 9.99858L37.7908 8.27273H38.8263L38.7326 9.99858L40.1815 9.0483L40.7013 9.9517L39.1502 10.7273L40.7013 11.5028L40.1815 12.4062L38.7326 11.456L38.8263 13.1818H37.7908ZM44.3065 13.1818L44.4045 11.456L42.9556 12.4062L42.4357 11.5028L43.9826 10.7273L42.4357 9.9517L42.9556 9.0483L44.4045 9.99858L44.3065 8.27273H45.342L45.2482 9.99858L46.6971 9.0483L47.217 9.9517L45.6658 10.7273L47.217 11.5028L46.6971 12.4062L45.2482 11.456L45.342 13.1818H44.3065Z" fill="#1277BD"/>
</svg>
