<svg width="30" height="32" viewBox="0 0 30 32" fill="none" xmlns="http://www.w3.org/2000/svg">
<path fill-rule="evenodd" clip-rule="evenodd" d="M35.3734 -7.14414C29.8706 -13.1588 22.5529 -16.4725 14.7562 -16.4762C-1.30853 -16.4762 -14.3835 -2.20258 -14.3899 15.3417C-14.3919 20.9497 -13.0501 26.4236 -10.4993 31.2494L-14.6342 47.7381L0.816505 43.3134C5.07354 45.8483 9.86655 47.1846 14.7445 47.1865H14.7565C30.8196 47.1865 43.8957 32.911 43.9024 15.3664C43.9053 6.86459 40.8761 -1.12983 35.3734 -7.14414ZM14.7565 41.8125H14.7468C10.3999 41.8108 6.13634 40.5356 2.41712 38.126L1.53237 37.5532L-7.63623 40.1786L-5.18901 30.4192L-5.76499 29.4181C-8.18979 25.2077 -9.47076 20.3408 -9.46879 15.3432C-9.46346 0.761297 1.40373 -11.1021 14.7663 -11.1021C21.2365 -11.0996 27.3192 -8.34517 31.8929 -3.34574C36.4664 1.65335 38.9835 8.29798 38.9811 15.3649C38.9757 29.948 28.1085 41.8125 14.7565 41.8125ZM28.0443 22.0044C27.316 21.6067 23.7359 19.6831 23.0683 19.4177C22.4008 19.1529 21.9151 19.0201 21.4297 19.8159C20.9444 20.612 19.5484 22.4026 19.1236 22.9335C18.6987 23.4638 18.2738 23.5305 17.5458 23.1323C16.8174 22.7345 14.4711 21.8948 11.6893 19.1859C9.52447 17.0777 8.06291 14.4744 7.63802 13.678C7.21327 12.882 7.59262 12.452 7.9574 12.0554C8.28492 11.6991 8.68568 11.1266 9.05003 10.6624C9.41425 10.1984 9.53532 9.86652 9.77817 9.33593C10.021 8.80535 9.89967 8.34085 9.71735 7.94322C9.53532 7.54497 8.0789 3.63135 7.47197 2.03944C6.8809 0.489456 6.28054 0.699102 5.83352 0.674631C5.4092 0.651718 4.92335 0.646418 4.43764 0.646418C3.95221 0.646418 3.16339 0.845467 2.49565 1.6415C1.82833 2.43738 -0.0531197 4.36099 -0.0531197 8.27445C-0.0531197 12.1881 2.55618 15.9683 2.92054 16.4992C3.28447 17.0297 8.05591 25.0604 15.3611 28.5045C17.0984 29.3238 18.455 29.8127 19.5128 30.1795C21.2575 30.7848 22.845 30.699 24.0996 30.4945C25.499 30.2662 28.4084 28.5709 29.0152 26.7139C29.6219 24.8565 29.6219 23.2644 29.4399 22.9329C29.258 22.6017 28.7726 22.4026 28.0443 22.0044Z" fill="#1277BD"/>
</svg>

