<svg width="30" height="31" viewBox="0 0 30 31" fill="none" xmlns="http://www.w3.org/2000/svg">
<path fill-rule="evenodd" clip-rule="evenodd" d="M25.6289 4.37565C22.8087 1.55221 19.0583 -0.00337184 15.0626 -0.00509644C6.82939 -0.00509644 0.128482 6.69537 0.125177 14.9312C0.124171 17.5638 0.811852 20.1334 2.11909 22.3988L0 30.139L7.91847 28.0619C10.1002 29.2519 12.5566 29.8792 15.0566 29.8801H15.0627C23.2951 29.8801 29.9966 23.1787 30 14.9428C30.0014 10.9518 28.449 7.19896 25.6289 4.37565ZM15.0627 27.3574H15.0577C12.83 27.3566 10.6449 26.758 8.7388 25.6268L8.28537 25.3579L3.58643 26.5904L4.84064 22.009L4.54545 21.5391C3.30274 19.5626 2.64624 17.2779 2.64725 14.9319C2.64998 8.08669 8.21941 2.51769 15.0678 2.51769C18.3837 2.51884 21.5011 3.81186 23.8451 6.15874C26.1891 8.50548 27.4791 11.6247 27.4778 14.9421C27.4751 21.7879 21.9056 27.3574 15.0627 27.3574ZM21.8727 18.0589C21.4995 17.8722 19.6647 16.9692 19.3225 16.8446C18.9804 16.7203 18.7315 16.6579 18.4827 17.0316C18.234 17.4052 17.5186 18.2458 17.3008 18.495C17.0831 18.7439 16.8654 18.7753 16.4923 18.5883C16.1189 18.4016 14.9164 18.0074 13.4908 16.7358C12.3813 15.7462 11.6322 14.524 11.4145 14.1502C11.1968 13.7766 11.3912 13.5746 11.5782 13.3885C11.7461 13.2212 11.9514 12.9525 12.1381 12.7346C12.3248 12.5167 12.3869 12.3609 12.5113 12.1119C12.6358 11.8628 12.5736 11.6448 12.4802 11.4581C12.3869 11.2711 11.6404 9.43403 11.3294 8.6867C11.0265 7.95907 10.7188 8.05751 10.4897 8.04602C10.2722 8.03524 10.0232 8.0328 9.77427 8.0328C9.5255 8.0328 9.12122 8.12621 8.77904 8.49987C8.43699 8.87353 7.4728 9.7765 7.4728 11.6136C7.4728 13.4507 8.81008 15.2254 8.99677 15.4746C9.18331 15.7236 11.6286 19.4934 15.3726 21.1102C16.2629 21.4948 16.9582 21.7243 17.5003 21.8965C18.3945 22.1806 19.2081 22.1404 19.8511 22.0444C20.5682 21.9372 22.0593 21.1414 22.3703 20.2696C22.6813 19.3977 22.6813 18.6504 22.588 18.4947C22.4947 18.3392 22.2459 18.2458 21.8727 18.0589Z" fill="#1277BD"/>
</svg>

