<svg width="62" height="45" viewBox="0 0 62 45" fill="none" xmlns="http://www.w3.org/2000/svg">
<path d="M61.3464 9.62043C61.3464 9.62043 60.7411 5.31821 58.877 3.41154C56.5288 0.918208 53.8899 0.918208 52.6552 0.771542C44.014 0.135986 31.0133 0.135986 31.0133 0.135986H30.9891C30.9891 0.135986 17.9887 0.135986 9.29759 0.771542C8.08714 0.918208 5.44826 0.918208 3.07579 3.41154C1.23589 5.31821 0.630666 9.62043 0.630666 9.62043C0.630666 9.62043 0.0012207 14.7049 0.0012207 19.7649V24.5071C0.0012207 29.5671 0.630666 34.6271 0.630666 34.6271C0.630666 34.6271 1.23589 38.9293 3.10001 40.836C5.44826 43.3293 8.54705 43.256 9.92703 43.5004C14.8899 43.9893 30.9891 44.136 30.9891 44.136C30.9891 44.136 44.0137 44.1115 52.6806 43.476C53.8911 43.3293 56.53 43.3293 58.9024 40.836C60.7666 38.9293 61.3718 34.6271 61.3718 34.6271C61.3718 34.6271 61.999 29.5671 61.999 24.5071V19.7649C61.9748 14.7049 61.3464 9.62043 61.3464 9.62043ZM24.5968 30.2515V12.676L41.3494 21.5004L24.5968 30.2515Z" fill="#1277BD"/>
</svg>

